<svg viewBox="0 0 64 64" xml:space="preserve" xmlns="http://www.w3.org/2000/svg"><path d="M36.523 28.472c-2.124 0-3.075 1.168-3.606 1.988v-1.704h-4.002c.052 1.128 0 12.041 0 12.041h4.002v-6.726c0-.36.025-.72.131-.976.29-.72.948-1.465 2.054-1.465 1.448 0 2.027 1.105 2.027 2.723v6.443h4.003V33.89c0-3.697-1.975-5.418-4.609-5.418zm-3.607 2.03h-.026c.009-.014.019-.027.026-.041v.041zM22.697 28.756h4.002v12.041h-4.002z" fill="#ffffff" class="fill-000000"></path><path d="M32 7.174C18.311 7.174 7.174 18.311 7.174 32S18.311 56.826 32 56.826 56.826 45.689 56.826 32 45.689 7.174 32 7.174zm13.165 36.055c0 1.054-.876 1.91-1.959 1.91H20.625c-1.08 0-1.957-.855-1.957-1.91V20.385c0-1.055.877-1.91 1.957-1.91h22.581c1.082 0 1.959.856 1.959 1.91v22.844z" fill="#ffffff" class="fill-000000"></path><path d="M24.725 22.951c-1.368 0-2.264.898-2.264 2.08 0 1.155.869 2.08 2.211 2.08h.026c1.396 0 2.265-.925 2.265-2.08-.027-1.181-.868-2.08-2.238-2.08z" fill="#ffffff" class="fill-000000"></path></svg>