<svg width="279.55625px" height="122px" xmlns="http://www.w3.org/2000/svg" viewBox="110.22187500000001 14 279.55625 122" style="background: rgba(89, 104, 134, 0);" preserveAspectRatio="xMidYMid"><defs><filter id="editing-hover" x="-100%" y="-100%" width="300%" height="300%"><feFlood flood-color="#052b4a" result="flood"></feFlood><feComposite operator="in" in2="SourceAlpha" in="flood" result="shadow"></feComposite><feOffset dx="-4" dy="-4" in="SourceGraphic" result="offset-1"></feOffset><feOffset dx="4" dy="4" in="shadow" result="offset-2"></feOffset><feMerge><feMergeNode in="offset-2"></feMergeNode><feMergeNode in="offset-1"></feMergeNode></feMerge></filter></defs><g filter="url(#editing-hover)"><g transform="translate(155.95001676678658, 97.07999992370605)"><path d="M0.45-0.32L0.45-0.32L8.51-42.24L8.51-42.24Q16.06-42.88 20.93-42.88L20.93-42.88L20.93-42.88Q25.79-42.88 28.93-42.46L28.93-42.46L28.93-42.46Q32.06-42.05 34.18-40.96L34.18-40.96L34.18-40.96Q38.40-38.91 38.40-33.28L38.40-33.28L38.40-33.28Q38.40-30.02 35.58-27.26L35.58-27.26L35.58-27.26Q32.96-24.77 30.08-24.19L30.08-24.19L30.08-24.19Q33.15-23.68 35.33-21.38L35.33-21.38L35.33-21.38Q37.63-18.94 37.63-15.17L37.63-15.17L37.63-15.17Q37.63-7.87 32.19-3.62L32.19-3.62L32.19-3.62Q26.75 0.64 16.06 0.64L16.06 0.64L16.06 0.64Q8.70 0.64 0.45-0.32ZM17.86-20.61L14.66-4.03L14.66-4.03Q15.23-3.97 15.36-3.97L15.36-3.97L15.94-3.97L15.94-3.97Q21.18-3.97 23.42-7.42L23.42-7.42L23.42-7.42Q25.09-10.11 25.09-15.04L25.09-15.04L25.09-15.04Q25.09-17.66 23.39-19.07L23.39-19.07L23.39-19.07Q21.70-20.48 17.86-20.61L17.86-20.61ZM27.58-33.22L27.58-33.22L27.58-33.22Q27.58-38.53 22.46-38.53L22.46-38.53L21.89-38.53L21.89-38.53Q21.63-38.53 21.25-38.46L21.25-38.46L18.69-24.96L19.33-24.96L19.33-24.96Q27.58-25.15 27.58-33.22ZM69.63 1.28L69.63 1.28L69.63 1.28Q61.44 1.28 60.67-10.37L60.67-10.37L49.66-10.37L49.66-10.37Q48.38-7.42 47.49-4.86L47.49-4.86L45.82 0L36.86 0L57.02-42.24L70.78-42.24L73.47-11.14L73.47-11.14Q74.11-4.42 76.67-2.43L76.67-2.43L76.67-2.43Q74.82 1.28 69.63 1.28ZM55.17-23.17L51.65-15.04L60.48-15.04L59.71-31.49L59.71-33.22L55.17-23.17ZM79.74-0.32L79.74-0.32L87.81-42.24L87.81-42.24Q95.36-42.88 100.22-42.88L100.22-42.88L100.22-42.88Q105.09-42.88 108.22-42.46L108.22-42.46L108.22-42.46Q111.36-42.05 113.47-40.96L113.47-40.96L113.47-40.96Q117.70-38.91 117.70-33.28L117.70-33.28L117.70-33.28Q117.70-30.02 114.88-27.26L114.88-27.26L114.88-27.26Q112.26-24.77 109.38-24.19L109.38-24.19L109.38-24.19Q112.45-23.68 114.62-21.38L114.62-21.38L114.62-21.38Q116.93-18.94 116.93-15.17L116.93-15.17L116.93-15.17Q116.93-7.87 111.49-3.62L111.49-3.62L111.49-3.62Q106.05 0.64 95.36 0.64L95.36 0.64L95.36 0.64Q88 0.64 79.74-0.32ZM97.15-20.61L93.95-4.03L93.95-4.03Q94.53-3.97 94.66-3.97L94.66-3.97L95.23-3.97L95.23-3.97Q100.48-3.97 102.72-7.42L102.72-7.42L102.72-7.42Q104.38-10.11 104.38-15.04L104.38-15.04L104.38-15.04Q104.38-17.66 102.69-19.07L102.69-19.07L102.69-19.07Q100.99-20.48 97.15-20.61L97.15-20.61ZM106.88-33.22L106.88-33.22L106.88-33.22Q106.88-38.53 101.76-38.53L101.76-38.53L101.18-38.53L101.18-38.53Q100.93-38.53 100.54-38.46L100.54-38.46L97.98-24.96L98.62-24.96L98.62-24.96Q106.88-25.15 106.88-33.22ZM148.93 1.28L148.93 1.28L148.93 1.28Q140.74 1.28 139.97-10.37L139.97-10.37L128.96-10.37L128.96-10.37Q127.68-7.42 126.78-4.86L126.78-4.86L125.12 0L116.16 0L136.32-42.24L150.08-42.24L152.77-11.14L152.77-11.14Q153.41-4.42 155.97-2.43L155.97-2.43L155.97-2.43Q154.11 1.28 148.93 1.28ZM134.46-23.17L130.94-15.04L139.78-15.04L139.01-31.49L139.01-33.22L134.46-23.17ZM186.43-9.86L186.43-9.86L186.43-9.86Q187.65-8.32 187.65-5.34L187.65-5.34L187.65-5.34Q187.65-2.37 185.38-0.54L185.38-0.54L185.38-0.54Q183.10 1.28 179.14 1.28L179.14 1.28L179.14 1.28Q176.83 1.28 173.25 0.77L173.25 0.77L173.25 0.77Q166.21-0.32 164.19-0.32L164.19-0.32L164.19-0.32Q162.18-0.32 161.34-0.22L161.34-0.22L161.34-0.22Q160.51-0.13 159.17 0L159.17 0L166.91-42.24L180.93-42.24L174.53-7.04L174.53-7.04Q175.36-6.91 176.13-6.91L176.13-6.91L177.73-6.91L177.73-6.91Q183.10-6.91 186.43-9.86Z" fill="#ffd5af"></path></g></g><style>text {
  font-size: 64px;
  font-family: Arial Black;
  dominant-baseline: central;
  text-anchor: middle;
}</style></svg>